<svg width="1032" height="454" viewBox="0 0 1032 454" fill="none" xmlns="http://www.w3.org/2000/svg">
<g style="mix-blend-mode:lighten" opacity="0.5" filter="url(#filter0_f_16_17)">
<g style="mix-blend-mode:color-dodge" opacity="0.9">
<g style="mix-blend-mode:color-dodge">
<path d="M240.894 127.095L239.916 126.889L239.913 126.904L239.91 126.919L240.894 127.095ZM231.894 148.095L232.708 148.676L232.708 148.676L231.894 148.095ZM212.494 163.895L212.059 162.995L212.053 162.998L212.494 163.895ZM159.694 169.895V168.895H158.854L158.709 169.722L159.694 169.895ZM150.294 223.495V224.495H151.134L151.279 223.668L150.294 223.495ZM122.094 223.495L121.11 223.32L120.901 224.495H122.094V223.495ZM146.894 83.8949V82.8949H146.056L145.91 83.7199L146.894 83.8949ZM230.694 93.4949L230.037 94.2483L230.045 94.2551L230.694 93.4949ZM203.894 142.295L204.541 143.057L204.541 143.057L203.894 142.295ZM212.294 127.095L211.318 126.878L211.315 126.894L211.311 126.911L212.294 127.095ZM171.094 106.095V105.095H170.256L170.11 105.921L171.094 106.095ZM163.694 147.895L162.71 147.721L162.502 148.895H163.694V147.895ZM239.91 126.919C238.604 134.231 235.666 141.094 231.081 147.514L232.708 148.676C237.456 142.029 240.518 134.892 241.879 127.271L239.91 126.919ZM231.081 147.514C226.525 153.892 220.197 159.057 212.059 162.995L212.93 164.795C221.325 160.733 227.931 155.364 232.708 148.676L231.081 147.514ZM212.053 162.998C204.088 166.914 194.447 168.895 183.094 168.895V170.895C194.675 170.895 204.634 168.875 212.936 164.792L212.053 162.998ZM183.094 168.895H159.694V170.895H183.094V168.895ZM158.709 169.722L149.309 223.322L151.279 223.668L160.679 170.068L158.709 169.722ZM150.294 222.495H122.094V224.495H150.294V222.495ZM123.079 223.67L147.879 84.0698L145.91 83.7199L121.11 223.32L123.079 223.67ZM146.894 84.8949H198.294V82.8949H146.894V84.8949ZM198.294 84.8949C212.429 84.8949 222.954 88.0672 230.037 94.2483L231.352 92.7414C223.768 86.1225 212.693 82.8949 198.294 82.8949V84.8949ZM230.045 94.2551C237.134 100.313 240.694 108.424 240.694 118.695H242.694C242.694 107.899 238.922 99.2102 231.344 92.7346L230.045 94.2551ZM240.694 118.695C240.694 121.705 240.433 124.434 239.916 126.889L241.873 127.301C242.423 124.689 242.694 121.818 242.694 118.695H240.694ZM185.894 148.895C193.655 148.895 199.91 146.987 204.541 143.057L203.247 141.532C199.079 145.069 193.333 146.895 185.894 146.895V148.895ZM204.541 143.057C209.139 139.157 212.041 133.874 213.277 127.279L211.311 126.911C210.148 133.116 207.45 137.966 203.247 141.532L204.541 143.057ZM213.271 127.312C213.561 126.004 213.694 124.184 213.694 121.895H211.694C211.694 124.139 211.561 125.785 211.318 126.878L213.271 127.312ZM213.694 121.895C213.694 116.41 211.983 112.137 208.422 109.266C204.902 106.429 199.736 105.095 193.094 105.095V107.095C199.519 107.095 204.153 108.394 207.167 110.823C210.139 113.22 211.694 116.846 211.694 121.895H213.694ZM193.094 105.095H171.094V107.095H193.094V105.095ZM170.11 105.921L162.71 147.721L164.679 148.069L172.079 106.269L170.11 105.921ZM163.694 148.895H185.894V146.895H163.694V148.895ZM297.974 217.495L297.481 218.365L297.488 218.369L297.496 218.373L297.974 217.495ZM277.174 196.695L276.299 197.178L276.302 197.184L277.174 196.695ZM280.374 122.895L279.502 122.405L279.499 122.412L280.374 122.895ZM309.974 92.8948L310.472 93.762L310.475 93.7603L309.974 92.8948ZM383.774 89.2949L383.291 90.1703L383.296 90.1732L383.774 89.2949ZM404.774 110.095L403.899 110.578L403.902 110.584L404.774 110.095ZM401.574 183.895L400.699 183.412L400.699 183.412L401.574 183.895ZM371.974 214.095L372.468 214.964L372.475 214.96L371.974 214.095ZM359.574 191.495L359.026 190.658L359.019 190.663L359.574 191.495ZM377.374 171.095L376.477 170.653L376.474 170.659L377.374 171.095ZM374.574 117.095L373.859 117.794L373.859 117.794L374.574 117.095ZM322.374 115.295L321.826 114.458L321.819 114.463L322.374 115.295ZM304.574 135.695L303.68 135.248L303.674 135.259L304.574 135.695ZM307.374 189.695L306.644 190.379L306.652 190.387L306.659 190.394L307.374 189.695ZM329.174 223.895C317.585 223.895 307.353 221.46 298.452 216.616L297.496 218.373C306.728 223.397 317.297 225.895 329.174 225.895V223.895ZM298.467 216.625C289.69 211.647 282.889 204.844 278.046 196.206L276.302 197.184C281.326 206.146 288.392 213.21 297.481 218.365L298.467 216.625ZM278.049 196.211C273.208 187.444 270.774 177.414 270.774 166.095H268.774C268.774 177.709 271.274 188.079 276.299 197.178L278.049 196.211ZM270.774 166.095C270.774 150.248 274.272 136.017 281.249 123.378L279.499 122.412C272.343 135.373 268.774 149.942 268.774 166.095H270.774ZM281.246 123.385C288.359 110.739 298.098 100.871 310.472 93.762L309.476 92.0277C296.784 99.3189 286.789 109.45 279.502 122.405L281.246 123.385ZM310.475 93.7603C322.978 86.5217 337.003 82.8949 352.574 82.8949V80.8949C336.678 80.8949 322.303 84.6014 309.473 92.0294L310.475 93.7603ZM352.574 82.8949C364.299 82.8949 374.528 85.3311 383.291 90.1702L384.257 88.4195C375.154 83.392 364.582 80.8949 352.574 80.8949V82.8949ZM383.296 90.1732C392.197 95.0166 399.059 101.814 403.899 110.578L405.649 109.611C400.623 100.509 393.484 93.4398 384.252 88.4165L383.296 90.1732ZM403.902 110.584C408.741 119.217 411.174 129.111 411.174 140.295H413.174C413.174 128.812 410.673 118.573 405.646 109.606L403.902 110.584ZM411.174 140.295C411.174 156.412 407.675 170.776 400.699 183.412L402.449 184.378C409.607 171.414 413.174 156.711 413.174 140.295H411.174ZM400.699 183.412C393.72 196.052 383.983 205.987 371.473 213.229L372.475 214.96C385.299 207.536 395.295 197.337 402.449 184.378L400.699 183.412ZM371.48 213.225C358.977 220.332 344.883 223.895 329.174 223.895V225.895C345.198 225.895 359.638 222.257 372.468 214.964L371.48 213.225ZM333.174 200.095C343.352 200.095 352.349 197.513 360.129 192.327L359.019 190.663C351.599 195.61 342.996 198.095 333.174 198.095V200.095ZM360.122 192.331C368.011 187.163 374.064 180.223 378.274 171.531L376.474 170.659C372.418 179.034 366.604 185.694 359.026 190.658L360.122 192.331ZM378.271 171.537C382.609 162.726 384.774 153.174 384.774 142.895H382.774C382.774 152.883 380.673 162.131 376.477 170.653L378.271 171.537ZM384.774 142.895C384.774 131.768 381.648 122.892 375.289 116.395L373.859 117.794C379.767 123.831 382.774 132.155 382.774 142.895H384.774ZM375.289 116.395C368.921 109.889 360.035 106.695 348.774 106.695V108.695C359.646 108.695 367.961 111.767 373.859 117.794L375.289 116.395ZM348.774 106.695C338.726 106.695 329.733 109.278 321.826 114.458L322.922 116.131C330.481 111.179 339.088 108.695 348.774 108.695V106.695ZM321.819 114.463C314.068 119.63 308.02 126.566 303.68 135.248L305.468 136.142C309.661 127.757 315.48 121.093 322.929 116.127L321.819 114.463ZM303.674 135.259C299.47 143.937 297.374 153.421 297.374 163.695H299.374C299.374 153.702 301.411 144.519 305.474 136.131L303.674 135.259ZM297.374 163.695C297.374 174.817 300.431 183.751 306.644 190.379L308.104 189.011C302.317 182.839 299.374 174.44 299.374 163.695H297.374ZM306.659 190.394C313.027 196.901 321.913 200.095 333.174 200.095V198.095C322.302 198.095 313.988 195.022 308.089 188.995L306.659 190.394ZM560.405 223.495V224.495H561.245L561.39 223.668L560.405 223.495ZM532.205 223.495L531.305 223.929L531.577 224.495H532.205V223.495ZM486.005 127.695L486.906 127.26L485.561 124.472L485.021 127.52L486.005 127.695ZM469.005 223.495V224.495H469.843L469.99 223.67L469.005 223.495ZM440.805 223.495L439.821 223.32L439.612 224.495H440.805V223.495ZM465.605 83.6948V82.6948H464.767L464.621 83.5202L465.605 83.6948ZM493.605 83.6948L494.506 83.2597L494.233 82.6948H493.605V83.6948ZM540.005 179.695L539.105 180.13L540.451 182.914L540.99 179.869L540.005 179.695ZM557.005 83.6948V82.6948H556.167L556.021 83.5205L557.005 83.6948ZM585.005 83.6948L585.99 83.8681L586.197 82.6948H585.005V83.6948ZM560.405 222.495H532.205V224.495H560.405V222.495ZM533.106 223.06L486.906 127.26L485.105 128.129L531.305 223.929L533.106 223.06ZM485.021 127.52L468.021 223.32L469.99 223.67L486.99 127.87L485.021 127.52ZM469.005 222.495H440.805V224.495H469.005V222.495ZM441.79 223.67L466.59 83.8695L464.621 83.5202L439.821 223.32L441.79 223.67ZM465.605 84.6948H493.605V82.6948H465.605V84.6948ZM492.705 84.13L539.105 180.13L540.906 179.26L494.506 83.2597L492.705 84.13ZM540.99 179.869L557.99 83.8692L556.021 83.5205L539.021 179.52L540.99 179.869ZM557.005 84.6948H585.005V82.6948H557.005V84.6948ZM584.02 83.5215L559.42 223.322L561.39 223.668L585.99 83.8681L584.02 83.5215ZM613.676 153.495L612.69 153.323L612.689 153.33L613.676 153.495ZM629.476 116.695L630.274 117.296L630.278 117.292L629.476 116.695ZM659.476 91.2949L659.927 92.1873L659.935 92.1832L659.476 91.2949ZM736.076 93.6948L735.469 94.4898L735.475 94.4942L735.481 94.4986L736.076 93.6948ZM754.676 125.895V126.895H755.841L755.664 125.743L754.676 125.895ZM722.476 125.895L721.536 126.237L721.775 126.895H722.476V125.895ZM652.076 129.495L651.253 128.926L651.253 128.926L652.076 129.495ZM642.476 153.495L643.455 153.699L643.458 153.684L643.46 153.669L642.476 153.495ZM651.076 190.295L650.376 191.009L650.383 191.017L650.391 191.024L651.076 190.295ZM705.476 190.895L704.893 190.082L704.887 190.087L705.476 190.895ZM723.276 167.095L724.21 167.451L724.728 166.095H723.276V167.095ZM675.276 167.095L674.29 166.927L674.091 168.095H675.276V167.095ZM678.876 145.895V144.895H678.031L677.89 145.727L678.876 145.895ZM754.476 145.895L755.46 146.072L755.672 144.895H754.476V145.895ZM750.076 170.295L751.013 170.642L751.044 170.559L751.06 170.472L750.076 170.295ZM733.276 197.295L734.012 197.972L734.012 197.972L733.276 197.295ZM706.076 217.295L706.5 218.201L706.509 218.196L706.076 217.295ZM640.876 217.495L640.402 218.376L640.408 218.379L640.876 217.495ZM619.876 197.495L619.007 197.99L619.011 197.998L619.016 198.005L619.876 197.495ZM614.661 153.667C617.034 140.085 622.239 127.966 630.274 117.296L628.677 116.093C620.445 127.024 615.117 139.439 612.691 153.323L614.661 153.667ZM630.278 117.292C638.321 106.48 648.202 98.1155 659.927 92.1873L659.024 90.4024C647.016 96.4742 636.897 105.043 628.673 116.098L630.278 117.292ZM659.935 92.1832C671.66 86.1231 684.102 83.0949 697.276 83.0949V81.0949C683.782 81.0949 671.025 84.1999 659.016 90.4065L659.935 92.1832ZM697.276 83.0949C712.842 83.0949 725.547 86.9181 735.469 94.4898L736.682 92.8999C726.337 85.0049 713.176 81.0949 697.276 81.0949V83.0949ZM735.481 94.4986C745.514 101.926 751.59 112.413 753.687 126.047L755.664 125.743C753.495 111.644 747.171 100.664 736.671 92.8911L735.481 94.4986ZM754.676 124.895H722.476V126.895H754.676V124.895ZM723.415 125.553C721.209 119.485 717.466 114.831 712.193 111.639L711.158 113.35C716.018 116.292 719.476 120.572 721.536 126.237L723.415 125.553ZM712.193 111.639C706.935 108.456 700.478 106.895 692.876 106.895V108.895C700.207 108.895 706.283 110.4 711.158 113.35L712.193 111.639ZM692.876 106.895C684.452 106.895 676.624 108.799 669.408 112.611L670.343 114.379C677.26 110.724 684.766 108.895 692.876 108.895V106.895ZM669.408 112.611C662.192 116.423 656.14 121.868 651.253 128.926L652.898 130.064C657.612 123.255 663.426 118.033 670.343 114.379L669.408 112.611ZM651.253 128.926C646.364 135.988 643.114 144.126 641.491 153.321L643.46 153.669C645.038 144.731 648.187 136.868 652.898 130.064L651.253 128.926ZM641.497 153.291C640.813 156.573 640.476 160.31 640.476 164.495H642.476C642.476 160.413 642.805 156.817 643.455 153.699L641.497 153.291ZM640.476 164.495C640.476 175.634 643.743 184.514 650.376 191.009L651.775 189.58C645.608 183.542 642.476 175.223 642.476 164.495H640.476ZM650.391 191.024C657.155 197.374 666.358 200.495 677.876 200.495V198.495C666.726 198.495 658.062 195.482 651.76 189.566L650.391 191.024ZM677.876 200.495C688.602 200.495 698.013 197.571 706.065 191.703L704.887 190.087C697.205 195.685 688.216 198.495 677.876 198.495V200.495ZM706.058 191.708C714.234 185.848 720.281 177.749 724.21 167.451L722.341 166.738C718.537 176.708 712.717 184.475 704.893 190.082L706.058 191.708ZM723.276 166.095H675.276V168.095H723.276V166.095ZM676.261 167.262L679.861 146.062L677.89 145.727L674.29 166.927L676.261 167.262ZM678.876 146.895H754.476V144.895H678.876V146.895ZM753.491 145.717L749.091 170.117L751.06 170.472L755.46 146.072L753.491 145.717ZM749.138 169.948C745.586 179.55 740.059 188.439 732.539 196.618L734.012 197.972C741.693 189.617 747.365 180.507 751.013 170.642L749.138 169.948ZM732.539 196.618C725.029 204.788 716.066 211.38 705.642 216.394L706.509 218.196C717.152 213.077 726.322 206.335 734.012 197.972L732.539 196.618ZM705.651 216.389C695.255 221.258 684.134 223.695 672.276 223.695V225.695C684.417 225.695 695.829 223.198 706.5 218.2L705.651 216.389ZM672.276 223.695C660.546 223.695 650.245 221.324 641.343 216.611L640.408 218.379C649.64 223.266 660.272 225.695 672.276 225.695V223.695ZM641.349 216.614C632.572 211.898 625.707 205.358 620.735 196.984L619.016 198.005C624.177 206.699 631.313 213.492 640.402 218.376L641.349 216.614ZM620.745 197C615.908 188.504 613.476 178.679 613.476 167.495H611.476C611.476 178.978 613.976 189.153 619.007 197.99L620.745 197ZM613.476 167.495C613.476 163.02 613.87 158.409 614.662 153.659L612.689 153.33C611.881 158.181 611.476 162.903 611.476 167.495H613.476Z" fill="white"/>
</g>
</g>
<g style="mix-blend-mode:color-dodge" filter="url(#filter1_d_16_17)">
<path d="M243.875 131.095C242.541 138.562 239.541 145.562 234.875 152.095C230.208 158.628 223.741 163.895 215.475 167.895C207.341 171.895 197.541 173.895 186.075 173.895H162.675L153.275 227.495H125.075L149.875 87.8948H201.275C215.541 87.8948 226.341 91.0948 233.675 97.4948C241.008 103.762 244.675 112.161 244.675 122.695C244.675 125.761 244.408 128.562 243.875 131.095ZM188.875 151.895C196.475 151.895 202.475 150.028 206.875 146.295C211.275 142.562 214.075 137.495 215.275 131.095C215.541 129.895 215.675 128.162 215.675 125.895C215.675 115.362 209.141 110.095 196.075 110.095H174.075L166.675 151.895H188.875ZM332.154 228.895C320.421 228.895 310.021 226.428 300.954 221.495C292.021 216.428 285.088 209.495 280.154 200.695C275.221 191.762 272.754 181.562 272.754 170.095C272.754 154.095 276.288 139.695 283.354 126.895C290.554 114.095 300.421 104.095 312.954 96.8948C325.621 89.5615 339.821 85.8948 355.554 85.8948C367.421 85.8948 377.821 88.3615 386.754 93.2948C395.821 98.2282 402.821 105.162 407.754 114.095C412.688 122.895 415.154 132.962 415.154 144.295C415.154 160.562 411.621 175.095 404.554 187.895C397.488 200.695 387.621 210.762 374.954 218.095C362.288 225.295 348.021 228.895 332.154 228.895ZM336.154 203.095C346.154 203.095 354.954 200.562 362.554 195.495C370.288 190.428 376.221 183.628 380.354 175.095C384.621 166.428 386.754 157.028 386.754 146.895C386.754 135.962 383.688 127.362 377.554 121.095C371.421 114.828 362.821 111.695 351.754 111.695C341.888 111.695 333.088 114.228 325.354 119.295C317.754 124.362 311.821 131.162 307.554 139.695C303.421 148.228 301.354 157.562 301.354 167.695C301.354 178.628 304.354 187.295 310.354 193.695C316.488 199.962 325.088 203.095 336.154 203.095ZM563.385 227.495H535.186L488.986 131.695L471.985 227.495H443.785L468.585 87.6948H496.586L542.986 183.695L559.986 87.6948H587.986L563.385 227.495ZM616.656 157.495C619.056 143.762 624.322 131.495 632.456 120.695C640.589 109.761 650.589 101.295 662.456 95.2948C674.322 89.1615 686.922 86.0948 700.256 86.0948C715.989 86.0948 728.922 89.9615 739.056 97.6948C749.322 105.295 755.522 116.028 757.656 129.895H725.456C723.322 124.028 719.722 119.562 714.656 116.495C709.589 113.428 703.322 111.895 695.856 111.895C687.589 111.895 679.922 113.762 672.856 117.495C665.789 121.228 659.856 126.562 655.056 133.495C650.256 140.428 647.056 148.428 645.456 157.495C644.789 160.695 644.456 164.362 644.456 168.495C644.456 179.428 647.656 188.028 654.056 194.295C660.589 200.428 669.522 203.495 680.856 203.495C691.389 203.495 700.589 200.628 708.456 194.895C716.456 189.162 722.389 181.228 726.256 171.095H678.256L681.856 149.895H757.456L753.056 174.295C749.456 184.028 743.856 193.028 736.256 201.295C728.656 209.562 719.589 216.228 709.056 221.295C698.522 226.228 687.256 228.695 675.256 228.695C663.389 228.695 652.922 226.295 643.856 221.495C634.922 216.695 627.922 210.028 622.856 201.495C617.922 192.828 615.456 182.828 615.456 171.495C615.456 166.962 615.856 162.295 616.656 157.495Z" fill="#5AFFBA"/>
</g>
<g style="mix-blend-mode:color-dodge" filter="url(#filter2_d_16_17)">
<path d="M246.855 131.095C245.521 138.562 242.521 145.562 237.855 152.095C233.188 158.628 226.721 163.895 218.455 167.895C210.321 171.895 200.521 173.895 189.055 173.895H165.655L156.255 227.495H128.055L152.855 87.8948H204.255C218.521 87.8948 229.321 91.0948 236.655 97.4948C243.988 103.762 247.655 112.161 247.655 122.695C247.655 125.761 247.388 128.562 246.855 131.095ZM191.855 151.895C199.455 151.895 205.455 150.028 209.855 146.295C214.255 142.562 217.055 137.495 218.255 131.095C218.521 129.895 218.655 128.162 218.655 125.895C218.655 115.362 212.121 110.095 199.055 110.095H177.055L169.655 151.895H191.855ZM335.134 228.895C323.401 228.895 313.001 226.428 303.934 221.495C295.001 216.428 288.068 209.495 283.134 200.695C278.201 191.762 275.734 181.562 275.734 170.095C275.734 154.095 279.268 139.695 286.334 126.895C293.534 114.095 303.401 104.095 315.934 96.8948C328.601 89.5615 342.801 85.8948 358.534 85.8948C370.401 85.8948 380.801 88.3615 389.734 93.2948C398.801 98.2282 405.801 105.162 410.734 114.095C415.668 122.895 418.134 132.962 418.134 144.295C418.134 160.562 414.601 175.095 407.534 187.895C400.468 200.695 390.601 210.762 377.934 218.095C365.268 225.295 351.001 228.895 335.134 228.895ZM339.134 203.095C349.134 203.095 357.934 200.562 365.534 195.495C373.268 190.428 379.201 183.628 383.334 175.095C387.601 166.428 389.734 157.028 389.734 146.895C389.734 135.962 386.668 127.362 380.534 121.095C374.401 114.828 365.801 111.695 354.734 111.695C344.868 111.695 336.068 114.228 328.334 119.295C320.734 124.362 314.801 131.162 310.534 139.695C306.401 148.228 304.334 157.562 304.334 167.695C304.334 178.628 307.334 187.295 313.334 193.695C319.468 199.962 328.068 203.095 339.134 203.095ZM566.366 227.495H538.166L491.966 131.695L474.966 227.495H446.766L471.566 87.6948H499.566L545.966 183.695L562.966 87.6948H590.966L566.366 227.495ZM619.636 157.495C622.036 143.762 627.303 131.495 635.436 120.695C643.569 109.761 653.569 101.295 665.436 95.2948C677.303 89.1615 689.903 86.0948 703.236 86.0948C718.969 86.0948 731.903 89.9615 742.036 97.6948C752.303 105.295 758.503 116.028 760.636 129.895H728.436C726.303 124.028 722.703 119.562 717.636 116.495C712.569 113.428 706.303 111.895 698.836 111.895C690.569 111.895 682.903 113.762 675.836 117.495C668.769 121.228 662.836 126.562 658.036 133.495C653.236 140.428 650.036 148.428 648.436 157.495C647.769 160.695 647.436 164.362 647.436 168.495C647.436 179.428 650.636 188.028 657.036 194.295C663.569 200.428 672.503 203.495 683.836 203.495C694.369 203.495 703.569 200.628 711.436 194.895C719.436 189.162 725.369 181.228 729.236 171.095H681.236L684.836 149.895H760.436L756.036 174.295C752.436 184.028 746.836 193.028 739.236 201.295C731.636 209.562 722.569 216.228 712.036 221.295C701.503 226.228 690.236 228.695 678.236 228.695C666.369 228.695 655.903 226.295 646.836 221.495C637.903 216.695 630.903 210.028 625.836 201.495C620.903 192.828 618.436 182.828 618.436 171.495C618.436 166.962 618.836 162.295 619.636 157.495Z" fill="#EDFF1F"/>
</g>
<g style="mix-blend-mode:color-dodge" filter="url(#filter3_d_16_17)">
<path d="M246.855 123.095C245.521 130.562 242.521 137.562 237.855 144.095C233.188 150.628 226.721 155.895 218.455 159.895C210.321 163.895 200.521 165.895 189.055 165.895H165.655L156.255 219.495H128.055L152.855 79.8948H204.255C218.521 79.8948 229.321 83.0948 236.655 89.4948C243.988 95.7615 247.655 104.161 247.655 114.695C247.655 117.761 247.388 120.562 246.855 123.095ZM191.855 143.895C199.455 143.895 205.455 142.028 209.855 138.295C214.255 134.562 217.055 129.495 218.255 123.095C218.521 121.895 218.655 120.162 218.655 117.895C218.655 107.362 212.121 102.095 199.055 102.095H177.055L169.655 143.895H191.855ZM335.134 220.895C323.401 220.895 313.001 218.428 303.934 213.495C295.001 208.428 288.068 201.495 283.134 192.695C278.201 183.762 275.734 173.562 275.734 162.095C275.734 146.095 279.268 131.695 286.334 118.895C293.534 106.095 303.401 96.0948 315.934 88.8948C328.601 81.5615 342.801 77.8948 358.534 77.8948C370.401 77.8948 380.801 80.3615 389.734 85.2948C398.801 90.2282 405.801 97.1615 410.734 106.095C415.668 114.895 418.134 124.962 418.134 136.295C418.134 152.562 414.601 167.095 407.534 179.895C400.468 192.695 390.601 202.762 377.934 210.095C365.268 217.295 351.001 220.895 335.134 220.895ZM339.134 195.095C349.134 195.095 357.934 192.562 365.534 187.495C373.268 182.428 379.201 175.628 383.334 167.095C387.601 158.428 389.734 149.028 389.734 138.895C389.734 127.962 386.668 119.362 380.534 113.095C374.401 106.828 365.801 103.695 354.734 103.695C344.868 103.695 336.068 106.228 328.334 111.295C320.734 116.362 314.801 123.162 310.534 131.695C306.401 140.228 304.334 149.562 304.334 159.695C304.334 170.628 307.334 179.295 313.334 185.695C319.468 191.962 328.068 195.095 339.134 195.095ZM566.366 219.495H538.166L491.966 123.695L474.966 219.495H446.766L471.566 79.6948H499.566L545.966 175.695L562.966 79.6948H590.966L566.366 219.495ZM619.636 149.495C622.036 135.762 627.303 123.495 635.436 112.695C643.569 101.761 653.569 93.2948 665.436 87.2948C677.303 81.1615 689.903 78.0948 703.236 78.0948C718.969 78.0948 731.903 81.9615 742.036 89.6948C752.303 97.2948 758.503 108.028 760.636 121.895H728.436C726.303 116.028 722.703 111.562 717.636 108.495C712.569 105.428 706.303 103.895 698.836 103.895C690.569 103.895 682.903 105.762 675.836 109.495C668.769 113.228 662.836 118.562 658.036 125.495C653.236 132.428 650.036 140.428 648.436 149.495C647.769 152.695 647.436 156.362 647.436 160.495C647.436 171.428 650.636 180.028 657.036 186.295C663.569 192.428 672.503 195.495 683.836 195.495C694.369 195.495 703.569 192.628 711.436 186.895C719.436 181.162 725.369 173.228 729.236 163.095H681.236L684.836 141.895H760.436L756.036 166.295C752.436 176.028 746.836 185.028 739.236 193.295C731.636 201.562 722.569 208.228 712.036 213.295C701.503 218.228 690.236 220.695 678.236 220.695C666.369 220.695 655.903 218.295 646.836 213.495C637.903 208.695 630.903 202.028 625.836 193.495C620.903 184.828 618.436 174.828 618.436 163.495C618.436 158.962 618.836 154.295 619.636 149.495Z" fill="#3965FF"/>
</g>
<g style="mix-blend-mode:color-dodge">
<path d="M230.96 131.095C229.627 138.562 226.627 145.562 221.96 152.095C217.294 158.628 210.827 163.895 202.56 167.895C194.427 171.895 184.627 173.895 173.16 173.895H149.76L140.36 227.495H112.16L136.96 87.8948H188.36C202.627 87.8948 213.427 91.0948 220.76 97.4948C228.094 103.762 231.76 112.161 231.76 122.695C231.76 125.761 231.494 128.562 230.96 131.095ZM175.96 151.895C183.56 151.895 189.56 150.028 193.96 146.295C198.36 142.562 201.16 137.495 202.36 131.095C202.627 129.895 202.76 128.162 202.76 125.895C202.76 115.362 196.227 110.095 183.16 110.095H161.16L153.76 151.895H175.96ZM319.24 228.895C307.507 228.895 297.107 226.428 288.04 221.495C279.107 216.428 272.173 209.495 267.24 200.695C262.307 191.762 259.84 181.562 259.84 170.095C259.84 154.095 263.373 139.695 270.44 126.895C277.64 114.095 287.507 104.095 300.04 96.8948C312.707 89.5615 326.907 85.8948 342.64 85.8948C354.507 85.8948 364.907 88.3615 373.84 93.2948C382.907 98.2282 389.907 105.162 394.84 114.095C399.773 122.895 402.24 132.962 402.24 144.295C402.24 160.562 398.707 175.095 391.64 187.895C384.573 200.695 374.707 210.762 362.04 218.095C349.373 225.295 335.107 228.895 319.24 228.895ZM323.24 203.095C333.24 203.095 342.04 200.562 349.64 195.495C357.373 190.428 363.307 183.628 367.44 175.095C371.707 166.428 373.84 157.028 373.84 146.895C373.84 135.962 370.773 127.362 364.64 121.095C358.507 114.828 349.907 111.695 338.84 111.695C328.973 111.695 320.173 114.228 312.44 119.295C304.84 124.362 298.907 131.162 294.64 139.695C290.507 148.228 288.44 157.562 288.44 167.695C288.44 178.628 291.44 187.295 297.44 193.695C303.573 199.962 312.173 203.095 323.24 203.095ZM550.471 227.495H522.271L476.071 131.695L459.071 227.495H430.871L455.671 87.6948H483.671L530.071 183.695L547.071 87.6948H575.071L550.471 227.495ZM603.742 157.495C606.142 143.762 611.408 131.495 619.542 120.695C627.675 109.761 637.675 101.295 649.542 95.2948C661.408 89.1615 674.008 86.0948 687.342 86.0948C703.075 86.0948 716.008 89.9615 726.142 97.6948C736.408 105.295 742.608 116.028 744.742 129.895H712.542C710.408 124.028 706.808 119.562 701.742 116.495C696.675 113.428 690.408 111.895 682.942 111.895C674.675 111.895 667.008 113.762 659.942 117.495C652.875 121.228 646.942 126.562 642.142 133.495C637.342 140.428 634.142 148.428 632.542 157.495C631.875 160.695 631.542 164.362 631.542 168.495C631.542 179.428 634.742 188.028 641.142 194.295C647.675 200.428 656.608 203.495 667.942 203.495C678.475 203.495 687.675 200.628 695.542 194.895C703.542 189.162 709.475 181.228 713.342 171.095H665.342L668.942 149.895H744.542L740.142 174.295C736.542 184.028 730.942 193.028 723.342 201.295C715.742 209.562 706.675 216.228 696.142 221.295C685.608 226.228 674.342 228.695 662.342 228.695C650.475 228.695 640.008 226.295 630.942 221.495C622.008 216.695 615.008 210.028 609.942 201.495C605.008 192.828 602.542 182.828 602.542 171.495C602.542 166.962 602.942 162.295 603.742 157.495Z" fill="#FF5ABD"/>
</g>
</g>
<g style="mix-blend-mode:color-dodge" opacity="0.9">
<g style="mix-blend-mode:color-dodge">
<path d="M254.33 139.6L253.352 139.394L253.348 139.409L253.346 139.424L254.33 139.6ZM245.33 160.6L246.144 161.181L246.144 161.181L245.33 160.6ZM225.93 176.4L225.495 175.5L225.489 175.503L225.93 176.4ZM173.13 182.4V181.4H172.29L172.145 182.227L173.13 182.4ZM163.73 236V237H164.57L164.715 236.173L163.73 236ZM135.53 236L134.546 235.825L134.337 237H135.53V236ZM160.33 96.4V95.4H159.492L159.346 96.2251L160.33 96.4ZM244.13 106L243.473 106.753L243.48 106.76L244.13 106ZM217.33 154.8L217.977 155.563L217.977 155.563L217.33 154.8ZM225.73 139.6L224.754 139.383L224.75 139.399L224.747 139.416L225.73 139.6ZM184.53 118.6V117.6H183.692L183.545 118.426L184.53 118.6ZM177.13 160.4L176.145 160.226L175.938 161.4H177.13V160.4ZM253.346 139.424C252.04 146.736 249.102 153.599 244.516 160.019L246.144 161.181C250.892 154.534 253.954 147.397 255.315 139.776L253.346 139.424ZM244.516 160.019C239.96 166.397 233.632 171.562 225.495 175.5L226.366 177.3C234.761 173.238 241.367 167.869 246.144 161.181L244.516 160.019ZM225.489 175.503C217.524 179.42 207.883 181.4 196.53 181.4V183.4C208.11 183.4 218.069 181.38 226.371 177.297L225.489 175.503ZM196.53 181.4H173.13V183.4H196.53V181.4ZM172.145 182.227L162.745 235.827L164.715 236.173L174.115 182.573L172.145 182.227ZM163.73 235H135.53V237H163.73V235ZM136.515 236.175L161.315 96.5749L159.346 96.2251L134.546 235.825L136.515 236.175ZM160.33 97.4H211.73V95.4H160.33V97.4ZM211.73 97.4C225.865 97.4 236.39 100.572 243.473 106.753L244.788 105.247C237.204 98.6277 226.128 95.4 211.73 95.4V97.4ZM243.48 106.76C250.569 112.818 254.13 120.929 254.13 131.2H256.13C256.13 120.405 252.358 111.715 244.78 105.24L243.48 106.76ZM254.13 131.2C254.13 134.21 253.868 136.939 253.352 139.394L255.309 139.806C255.859 137.194 256.13 134.324 256.13 131.2H254.13ZM199.33 161.4C207.091 161.4 213.346 159.492 217.977 155.563L216.683 154.037C212.514 157.575 206.769 159.4 199.33 159.4V161.4ZM217.977 155.563C222.575 151.662 225.476 146.379 226.713 139.784L224.747 139.416C223.584 145.621 220.886 150.472 216.683 154.037L217.977 155.563ZM226.706 139.817C226.997 138.509 227.13 136.689 227.13 134.4H225.13C225.13 136.644 224.997 138.291 224.754 139.383L226.706 139.817ZM227.13 134.4C227.13 128.915 225.419 124.642 221.858 121.771C218.338 118.934 213.172 117.6 206.53 117.6V119.6C212.955 119.6 217.589 120.899 220.603 123.329C223.575 125.725 225.13 129.351 225.13 134.4H227.13ZM206.53 117.6H184.53V119.6H206.53V117.6ZM183.545 118.426L176.145 160.226L178.115 160.574L185.515 118.774L183.545 118.426ZM177.13 161.4H199.33V159.4H177.13V161.4ZM311.41 230L310.916 230.87L310.924 230.874L310.932 230.878L311.41 230ZM290.61 209.2L289.734 209.683L289.738 209.689L290.61 209.2ZM293.81 135.4L292.938 134.91L292.934 134.917L293.81 135.4ZM323.41 105.4L323.908 106.267L323.911 106.265L323.41 105.4ZM397.21 101.8L396.726 102.675L396.732 102.678L397.21 101.8ZM418.21 122.6L417.334 123.083L417.338 123.089L418.21 122.6ZM415.01 196.4L414.134 195.917L414.134 195.917L415.01 196.4ZM385.41 226.6L385.904 227.469L385.911 227.465L385.41 226.6ZM373.01 204L372.462 203.164L372.455 203.168L373.01 204ZM390.81 183.6L389.913 183.158L389.91 183.164L390.81 183.6ZM388.01 129.6L387.295 130.299L387.295 130.299L388.01 129.6ZM335.81 127.8L335.262 126.964L335.255 126.968L335.81 127.8ZM318.01 148.2L317.115 147.753L317.11 147.764L318.01 148.2ZM320.81 202.2L320.08 202.884L320.088 202.892L320.095 202.899L320.81 202.2ZM342.61 236.4C331.02 236.4 320.789 233.965 311.888 229.122L310.932 230.878C320.164 235.902 330.733 238.4 342.61 238.4V236.4ZM311.903 229.13C303.126 224.152 296.325 217.349 291.482 208.711L289.738 209.689C294.762 218.651 301.827 225.715 310.916 230.87L311.903 229.13ZM291.485 208.717C286.643 199.949 284.21 189.919 284.21 178.6H282.21C282.21 190.214 284.71 200.585 289.734 209.683L291.485 208.717ZM284.21 178.6C284.21 162.753 287.708 148.522 294.685 135.883L292.934 134.917C285.778 147.878 282.21 162.447 282.21 178.6H284.21ZM294.681 135.89C301.795 123.245 311.533 113.376 323.908 106.267L322.912 104.533C310.22 111.824 300.225 121.955 292.938 134.91L294.681 135.89ZM323.911 106.265C336.414 99.0268 350.439 95.4 366.01 95.4V93.4C350.114 93.4 335.739 97.1065 322.909 104.535L323.911 106.265ZM366.01 95.4C377.735 95.4 387.964 97.8362 396.726 102.675L397.693 100.925C388.589 95.8971 378.018 93.4 366.01 93.4V95.4ZM396.732 102.678C405.633 107.522 412.494 114.319 417.334 123.083L419.085 122.117C414.059 113.014 406.92 105.945 397.688 100.922L396.732 102.678ZM417.338 123.089C422.177 131.722 424.61 141.616 424.61 152.8H426.61C426.61 141.317 424.109 131.078 419.082 122.111L417.338 123.089ZM424.61 152.8C424.61 168.917 421.11 183.281 414.134 195.917L415.885 196.883C423.043 183.919 426.61 169.216 426.61 152.8H424.61ZM414.134 195.917C407.156 208.557 397.418 218.492 384.909 225.735L385.911 227.465C398.735 220.041 408.731 209.842 415.885 196.883L414.134 195.917ZM384.916 225.731C372.413 232.838 358.319 236.4 342.61 236.4V238.4C358.634 238.4 373.073 234.762 385.904 227.469L384.916 225.731ZM346.61 212.6C356.788 212.6 365.785 210.019 373.565 204.832L372.455 203.168C365.035 208.115 356.432 210.6 346.61 210.6V212.6ZM373.558 204.836C381.447 199.668 387.5 192.728 391.71 184.036L389.91 183.164C385.853 191.539 380.04 198.199 372.462 203.164L373.558 204.836ZM391.707 184.042C396.045 175.231 398.21 165.679 398.21 155.4H396.21C396.21 165.388 394.108 174.636 389.913 183.158L391.707 184.042ZM398.21 155.4C398.21 144.273 395.083 135.398 388.724 128.901L387.295 130.299C393.203 136.336 396.21 144.66 396.21 155.4H398.21ZM388.724 128.901C382.357 122.394 373.471 119.2 362.21 119.2V121.2C373.082 121.2 381.396 124.272 387.295 130.299L388.724 128.901ZM362.21 119.2C352.162 119.2 343.169 121.783 335.262 126.964L336.358 128.636C343.917 123.684 352.524 121.2 362.21 121.2V119.2ZM335.255 126.968C327.504 132.136 321.456 139.071 317.115 147.753L318.904 148.647C323.097 140.262 328.916 133.598 336.365 128.632L335.255 126.968ZM317.11 147.764C312.906 156.443 310.81 165.926 310.81 176.2H312.81C312.81 166.207 314.847 157.024 318.91 148.636L317.11 147.764ZM310.81 176.2C310.81 187.322 313.866 196.256 320.08 202.884L321.539 201.516C315.753 195.344 312.81 186.945 312.81 176.2H310.81ZM320.095 202.899C326.463 209.406 335.349 212.6 346.61 212.6V210.6C335.738 210.6 327.423 207.528 321.524 201.501L320.095 202.899ZM573.841 236V237H574.68L574.826 236.173L573.841 236ZM545.641 236L544.74 236.434L545.013 237H545.641V236ZM499.441 140.2L500.342 139.766L498.997 136.978L498.456 140.025L499.441 140.2ZM482.441 236V237H483.279L483.426 236.175L482.441 236ZM454.241 236L453.256 235.825L453.048 237H454.241V236ZM479.041 96.2V95.2H478.203L478.056 96.0253L479.041 96.2ZM507.041 96.2L507.941 95.7648L507.668 95.2H507.041V96.2ZM553.441 192.2L552.541 192.635L553.886 195.42L554.426 192.374L553.441 192.2ZM570.441 96.2V95.2H569.603L569.456 96.0256L570.441 96.2ZM598.441 96.2L599.426 96.3733L599.632 95.2H598.441V96.2ZM573.841 235H545.641V237H573.841V235ZM546.542 235.566L500.342 139.766L498.54 140.634L544.74 236.434L546.542 235.566ZM498.456 140.025L481.456 235.825L483.426 236.175L500.426 140.375L498.456 140.025ZM482.441 235H454.241V237H482.441V235ZM455.226 236.175L480.026 96.3747L478.056 96.0253L453.256 235.825L455.226 236.175ZM479.041 97.2H507.041V95.2H479.041V97.2ZM506.141 96.6352L552.541 192.635L554.341 191.765L507.941 95.7648L506.141 96.6352ZM554.426 192.374L571.426 96.3744L569.456 96.0256L552.456 192.026L554.426 192.374ZM570.441 97.2H598.441V95.2H570.441V97.2ZM597.456 96.0267L572.856 235.827L574.826 236.173L599.426 96.3733L597.456 96.0267ZM627.111 166L626.126 165.828L626.125 165.836L627.111 166ZM642.911 129.2L643.71 129.802L643.714 129.797L642.911 129.2ZM672.911 103.8L673.363 104.692L673.371 104.688L672.911 103.8ZM749.511 106.2L748.905 106.995L748.911 106.999L748.916 107.004L749.511 106.2ZM768.111 138.4V139.4H769.277L769.1 138.248L768.111 138.4ZM735.911 138.4L734.972 138.742L735.211 139.4H735.911V138.4ZM665.511 142L664.689 141.431L664.689 141.431L665.511 142ZM655.911 166L656.89 166.204L656.893 166.189L656.896 166.174L655.911 166ZM664.511 202.8L663.812 203.515L663.819 203.522L663.827 203.529L664.511 202.8ZM718.911 203.4L718.329 202.587L718.322 202.592L718.911 203.4ZM736.711 179.6L737.646 179.957L738.163 178.6H736.711V179.6ZM688.711 179.6L687.725 179.433L687.527 180.6H688.711V179.6ZM692.311 158.4V157.4H691.467L691.325 158.233L692.311 158.4ZM767.911 158.4L768.896 158.577L769.108 157.4H767.911V158.4ZM763.511 182.8L764.449 183.147L764.48 183.064L764.496 182.977L763.511 182.8ZM746.711 209.8L747.448 210.477L747.448 210.477L746.711 209.8ZM719.511 229.8L719.936 230.706L719.945 230.701L719.511 229.8ZM654.311 230L653.838 230.881L653.843 230.884L654.311 230ZM633.311 210L632.442 210.495L632.447 210.503L632.452 210.511L633.311 210ZM628.096 166.172C630.47 152.59 635.675 140.471 643.71 129.802L642.113 128.598C633.881 139.529 628.553 151.944 626.126 165.828L628.096 166.172ZM643.714 129.797C651.757 118.985 661.638 110.621 673.363 104.692L672.46 102.908C660.452 108.979 650.333 117.549 642.109 128.603L643.714 129.797ZM673.371 104.688C685.096 98.6282 697.538 95.6 710.711 95.6V93.6C697.218 93.6 684.461 96.7051 672.452 102.912L673.371 104.688ZM710.711 95.6C726.278 95.6 738.983 99.4233 748.905 106.995L750.118 105.405C739.773 97.5101 726.611 93.6 710.711 93.6V95.6ZM748.916 107.004C758.949 114.431 765.025 124.918 767.123 138.552L769.1 138.248C766.931 124.149 760.607 113.169 750.106 105.396L748.916 107.004ZM768.111 137.4H735.911V139.4H768.111V137.4ZM736.851 138.058C734.644 131.99 730.902 127.336 725.629 124.144L724.594 125.855C729.454 128.797 732.912 133.077 734.972 138.742L736.851 138.058ZM725.629 124.144C720.37 120.962 713.914 119.4 706.311 119.4V121.4C713.643 121.4 719.719 122.905 724.594 125.855L725.629 124.144ZM706.311 119.4C697.888 119.4 690.06 121.304 682.844 125.116L683.779 126.884C690.696 123.23 698.202 121.4 706.311 121.4V119.4ZM682.844 125.116C675.628 128.928 669.575 134.373 664.689 141.431L666.334 142.569C671.047 135.76 676.862 130.538 683.779 126.884L682.844 125.116ZM664.689 141.431C659.8 148.493 656.549 156.631 654.927 165.826L656.896 166.174C658.473 157.236 661.623 149.373 666.334 142.569L664.689 141.431ZM654.932 165.796C654.249 169.078 653.911 172.815 653.911 177H655.911C655.911 172.918 656.241 169.322 656.89 166.204L654.932 165.796ZM653.911 177C653.911 188.139 657.179 197.02 663.812 203.515L665.211 202.085C659.044 196.047 655.911 187.728 655.911 177H653.911ZM663.827 203.529C670.591 209.879 679.794 213 691.311 213V211C680.162 211 671.498 207.987 665.196 202.071L663.827 203.529ZM691.311 213C702.038 213 711.448 210.077 719.5 204.208L718.322 202.592C710.641 208.19 701.651 211 691.311 211V213ZM719.494 204.213C727.669 198.354 733.716 190.254 737.646 179.957L735.777 179.243C731.973 189.213 726.153 196.98 718.329 202.587L719.494 204.213ZM736.711 178.6H688.711V180.6H736.711V178.6ZM689.697 179.767L693.297 158.567L691.325 158.233L687.725 179.433L689.697 179.767ZM692.311 159.4H767.911V157.4H692.311V159.4ZM766.927 158.223L762.527 182.623L764.496 182.977L768.896 158.577L766.927 158.223ZM762.573 182.453C759.022 192.055 753.494 200.944 745.975 209.123L747.448 210.477C755.128 202.122 760.801 193.012 764.449 183.147L762.573 182.453ZM745.975 209.123C738.464 217.293 729.502 223.885 719.078 228.899L719.945 230.701C730.588 225.582 739.758 218.841 747.448 210.477L745.975 209.123ZM719.087 228.894C708.691 233.764 697.57 236.2 685.711 236.2V238.2C697.853 238.2 709.265 235.703 719.936 230.706L719.087 228.894ZM685.711 236.2C673.982 236.2 663.681 233.829 654.779 229.116L653.843 230.884C663.075 235.771 673.707 238.2 685.711 238.2V236.2ZM654.785 229.119C646.008 224.403 639.143 217.863 634.171 209.489L632.452 210.511C637.613 219.204 644.748 225.997 653.838 230.881L654.785 229.119ZM634.18 209.505C629.344 201.009 626.911 191.184 626.911 180H624.911C624.911 191.483 627.412 201.658 632.442 210.495L634.18 209.505ZM626.911 180C626.911 175.526 627.306 170.914 628.098 166.164L626.125 165.836C625.317 170.686 624.911 175.408 624.911 180H626.911Z" fill="white"/>
</g>
</g>
<g style="mix-blend-mode:color-dodge" filter="url(#filter4_d_16_17)">
<path d="M257.33 142.6C255.997 150.067 252.997 157.067 248.33 163.6C243.663 170.133 237.197 175.4 228.93 179.4C220.797 183.4 210.997 185.4 199.53 185.4H176.13L166.73 239H138.53L163.33 99.4H214.73C228.997 99.4 239.797 102.6 247.13 109C254.463 115.267 258.13 123.667 258.13 134.2C258.13 137.267 257.863 140.067 257.33 142.6ZM202.33 163.4C209.93 163.4 215.93 161.533 220.33 157.8C224.73 154.067 227.53 149 228.73 142.6C228.997 141.4 229.13 139.667 229.13 137.4C229.13 126.867 222.597 121.6 209.53 121.6H187.53L180.13 163.4H202.33ZM345.61 240.4C333.876 240.4 323.476 237.933 314.41 233C305.476 227.933 298.543 221 293.61 212.2C288.676 203.267 286.21 193.067 286.21 181.6C286.21 165.6 289.743 151.2 296.81 138.4C304.01 125.6 313.876 115.6 326.41 108.4C339.076 101.067 353.276 97.4 369.01 97.4C380.876 97.4 391.276 99.8667 400.21 104.8C409.276 109.733 416.276 116.667 421.21 125.6C426.143 134.4 428.61 144.467 428.61 155.8C428.61 172.067 425.076 186.6 418.01 199.4C410.943 212.2 401.076 222.267 388.41 229.6C375.743 236.8 361.476 240.4 345.61 240.4ZM349.61 214.6C359.61 214.6 368.41 212.067 376.01 207C383.743 201.933 389.676 195.133 393.81 186.6C398.076 177.933 400.21 168.533 400.21 158.4C400.21 147.467 397.143 138.867 391.01 132.6C384.876 126.333 376.276 123.2 365.21 123.2C355.343 123.2 346.543 125.733 338.81 130.8C331.21 135.867 325.276 142.667 321.01 151.2C316.876 159.733 314.81 169.067 314.81 179.2C314.81 190.133 317.81 198.8 323.81 205.2C329.943 211.467 338.543 214.6 349.61 214.6ZM576.841 239H548.641L502.441 143.2L485.441 239H457.241L482.041 99.2H510.041L556.441 195.2L573.441 99.2H601.441L576.841 239ZM630.111 169C632.511 155.267 637.778 143 645.911 132.2C654.045 121.267 664.045 112.8 675.911 106.8C687.778 100.667 700.378 97.6 713.711 97.6C729.445 97.6 742.378 101.467 752.511 109.2C762.778 116.8 768.978 127.533 771.111 141.4H738.911C736.778 135.533 733.178 131.067 728.111 128C723.045 124.933 716.778 123.4 709.311 123.4C701.045 123.4 693.378 125.267 686.311 129C679.245 132.733 673.311 138.067 668.511 145C663.711 151.933 660.511 159.933 658.911 169C658.245 172.2 657.911 175.867 657.911 180C657.911 190.933 661.111 199.533 667.511 205.8C674.045 211.933 682.978 215 694.311 215C704.845 215 714.045 212.133 721.911 206.4C729.911 200.667 735.845 192.733 739.711 182.6H691.711L695.311 161.4H770.911L766.511 185.8C762.911 195.533 757.311 204.533 749.711 212.8C742.111 221.067 733.045 227.733 722.511 232.8C711.978 237.733 700.711 240.2 688.711 240.2C676.845 240.2 666.378 237.8 657.311 233C648.378 228.2 641.378 221.533 636.311 213C631.378 204.333 628.911 194.333 628.911 183C628.911 178.467 629.311 173.8 630.111 169Z" fill="#5AFFBA"/>
</g>
<g style="mix-blend-mode:color-dodge" filter="url(#filter5_d_16_17)">
<path d="M260.33 142.6C258.997 150.067 255.997 157.067 251.33 163.6C246.663 170.133 240.197 175.4 231.93 179.4C223.797 183.4 213.997 185.4 202.53 185.4H179.13L169.73 239H141.53L166.33 99.4H217.73C231.997 99.4 242.797 102.6 250.13 109C257.463 115.267 261.13 123.667 261.13 134.2C261.13 137.267 260.863 140.067 260.33 142.6ZM205.33 163.4C212.93 163.4 218.93 161.533 223.33 157.8C227.73 154.067 230.53 149 231.73 142.6C231.997 141.4 232.13 139.667 232.13 137.4C232.13 126.867 225.597 121.6 212.53 121.6H190.53L183.13 163.4H205.33ZM348.61 240.4C336.876 240.4 326.476 237.933 317.41 233C308.476 227.933 301.543 221 296.61 212.2C291.676 203.267 289.21 193.067 289.21 181.6C289.21 165.6 292.743 151.2 299.81 138.4C307.01 125.6 316.876 115.6 329.41 108.4C342.076 101.067 356.276 97.4 372.01 97.4C383.876 97.4 394.276 99.8667 403.21 104.8C412.276 109.733 419.276 116.667 424.21 125.6C429.143 134.4 431.61 144.467 431.61 155.8C431.61 172.067 428.076 186.6 421.01 199.4C413.943 212.2 404.076 222.267 391.41 229.6C378.743 236.8 364.476 240.4 348.61 240.4ZM352.61 214.6C362.61 214.6 371.41 212.067 379.01 207C386.743 201.933 392.676 195.133 396.81 186.6C401.076 177.933 403.21 168.533 403.21 158.4C403.21 147.467 400.143 138.867 394.01 132.6C387.876 126.333 379.276 123.2 368.21 123.2C358.343 123.2 349.543 125.733 341.81 130.8C334.21 135.867 328.276 142.667 324.01 151.2C319.876 159.733 317.81 169.067 317.81 179.2C317.81 190.133 320.81 198.8 326.81 205.2C332.943 211.467 341.543 214.6 352.61 214.6ZM579.841 239H551.641L505.441 143.2L488.441 239H460.241L485.041 99.2H513.041L559.441 195.2L576.441 99.2H604.441L579.841 239ZM633.111 169C635.511 155.267 640.778 143 648.911 132.2C657.045 121.267 667.045 112.8 678.911 106.8C690.778 100.667 703.378 97.6 716.711 97.6C732.445 97.6 745.378 101.467 755.511 109.2C765.778 116.8 771.978 127.533 774.111 141.4H741.911C739.778 135.533 736.178 131.067 731.111 128C726.045 124.933 719.778 123.4 712.311 123.4C704.045 123.4 696.378 125.267 689.311 129C682.245 132.733 676.311 138.067 671.511 145C666.711 151.933 663.511 159.933 661.911 169C661.245 172.2 660.911 175.867 660.911 180C660.911 190.933 664.111 199.533 670.511 205.8C677.045 211.933 685.978 215 697.311 215C707.845 215 717.045 212.133 724.911 206.4C732.911 200.667 738.845 192.733 742.711 182.6H694.711L698.311 161.4H773.911L769.511 185.8C765.911 195.533 760.311 204.533 752.711 212.8C745.111 221.067 736.045 227.733 725.511 232.8C714.978 237.733 703.711 240.2 691.711 240.2C679.845 240.2 669.378 237.8 660.311 233C651.378 228.2 644.378 221.533 639.311 213C634.378 204.333 631.911 194.333 631.911 183C631.911 178.467 632.311 173.8 633.111 169Z" fill="#EDFF1F"/>
</g>
<g style="mix-blend-mode:color-dodge" filter="url(#filter6_d_16_17)">
<path d="M260.33 134.6C258.997 142.067 255.997 149.067 251.33 155.6C246.663 162.133 240.197 167.4 231.93 171.4C223.797 175.4 213.997 177.4 202.53 177.4H179.13L169.73 231H141.53L166.33 91.4H217.73C231.997 91.4 242.797 94.6 250.13 101C257.463 107.267 261.13 115.667 261.13 126.2C261.13 129.267 260.863 132.067 260.33 134.6ZM205.33 155.4C212.93 155.4 218.93 153.533 223.33 149.8C227.73 146.067 230.53 141 231.73 134.6C231.997 133.4 232.13 131.667 232.13 129.4C232.13 118.867 225.597 113.6 212.53 113.6H190.53L183.13 155.4H205.33ZM348.61 232.4C336.876 232.4 326.476 229.933 317.41 225C308.476 219.933 301.543 213 296.61 204.2C291.676 195.267 289.21 185.067 289.21 173.6C289.21 157.6 292.743 143.2 299.81 130.4C307.01 117.6 316.876 107.6 329.41 100.4C342.076 93.0667 356.276 89.4 372.01 89.4C383.876 89.4 394.276 91.8667 403.21 96.8C412.276 101.733 419.276 108.667 424.21 117.6C429.143 126.4 431.61 136.467 431.61 147.8C431.61 164.067 428.076 178.6 421.01 191.4C413.943 204.2 404.076 214.267 391.41 221.6C378.743 228.8 364.476 232.4 348.61 232.4ZM352.61 206.6C362.61 206.6 371.41 204.067 379.01 199C386.743 193.933 392.676 187.133 396.81 178.6C401.076 169.933 403.21 160.533 403.21 150.4C403.21 139.467 400.143 130.867 394.01 124.6C387.876 118.333 379.276 115.2 368.21 115.2C358.343 115.2 349.543 117.733 341.81 122.8C334.21 127.867 328.276 134.667 324.01 143.2C319.876 151.733 317.81 161.067 317.81 171.2C317.81 182.133 320.81 190.8 326.81 197.2C332.943 203.467 341.543 206.6 352.61 206.6ZM579.841 231H551.641L505.441 135.2L488.441 231H460.241L485.041 91.2H513.041L559.441 187.2L576.441 91.2H604.441L579.841 231ZM633.111 161C635.511 147.267 640.778 135 648.911 124.2C657.045 113.267 667.045 104.8 678.911 98.8C690.778 92.6667 703.378 89.6 716.711 89.6C732.445 89.6 745.378 93.4667 755.511 101.2C765.778 108.8 771.978 119.533 774.111 133.4H741.911C739.778 127.533 736.178 123.067 731.111 120C726.045 116.933 719.778 115.4 712.311 115.4C704.045 115.4 696.378 117.267 689.311 121C682.245 124.733 676.311 130.067 671.511 137C666.711 143.933 663.511 151.933 661.911 161C661.245 164.2 660.911 167.867 660.911 172C660.911 182.933 664.111 191.533 670.511 197.8C677.045 203.933 685.978 207 697.311 207C707.845 207 717.045 204.133 724.911 198.4C732.911 192.667 738.845 184.733 742.711 174.6H694.711L698.311 153.4H773.911L769.511 177.8C765.911 187.533 760.311 196.533 752.711 204.8C745.111 213.067 736.045 219.733 725.511 224.8C714.978 229.733 703.711 232.2 691.711 232.2C679.845 232.2 669.378 229.8 660.311 225C651.378 220.2 644.378 213.533 639.311 205C634.378 196.333 631.911 186.333 631.911 175C631.911 170.467 632.311 165.8 633.111 161Z" fill="#3965FF"/>
</g>
<g style="mix-blend-mode:color-dodge">
<path d="M244.33 142.6C242.997 150.067 239.997 157.067 235.33 163.6C230.663 170.133 224.197 175.4 215.93 179.4C207.797 183.4 197.997 185.4 186.53 185.4H163.13L153.73 239H125.53L150.33 99.4H201.73C215.997 99.4 226.797 102.6 234.13 109C241.463 115.267 245.13 123.667 245.13 134.2C245.13 137.267 244.863 140.067 244.33 142.6ZM189.33 163.4C196.93 163.4 202.93 161.533 207.33 157.8C211.73 154.067 214.53 149 215.73 142.6C215.997 141.4 216.13 139.667 216.13 137.4C216.13 126.867 209.597 121.6 196.53 121.6H174.53L167.13 163.4H189.33ZM332.61 240.4C320.876 240.4 310.476 237.933 301.41 233C292.476 227.933 285.543 221 280.61 212.2C275.676 203.267 273.21 193.067 273.21 181.6C273.21 165.6 276.743 151.2 283.81 138.4C291.01 125.6 300.876 115.6 313.41 108.4C326.076 101.067 340.276 97.4 356.01 97.4C367.876 97.4 378.276 99.8667 387.21 104.8C396.276 109.733 403.276 116.667 408.21 125.6C413.143 134.4 415.61 144.467 415.61 155.8C415.61 172.067 412.076 186.6 405.01 199.4C397.943 212.2 388.076 222.267 375.41 229.6C362.743 236.8 348.476 240.4 332.61 240.4ZM336.61 214.6C346.61 214.6 355.41 212.067 363.01 207C370.743 201.933 376.676 195.133 380.81 186.6C385.076 177.933 387.21 168.533 387.21 158.4C387.21 147.467 384.143 138.867 378.01 132.6C371.876 126.333 363.276 123.2 352.21 123.2C342.343 123.2 333.543 125.733 325.81 130.8C318.21 135.867 312.276 142.667 308.01 151.2C303.876 159.733 301.81 169.067 301.81 179.2C301.81 190.133 304.81 198.8 310.81 205.2C316.943 211.467 325.543 214.6 336.61 214.6ZM563.841 239H535.641L489.441 143.2L472.441 239H444.241L469.041 99.2H497.041L543.441 195.2L560.441 99.2H588.441L563.841 239ZM617.111 169C619.511 155.267 624.778 143 632.911 132.2C641.045 121.267 651.045 112.8 662.911 106.8C674.778 100.667 687.378 97.6 700.711 97.6C716.445 97.6 729.378 101.467 739.511 109.2C749.778 116.8 755.978 127.533 758.111 141.4H725.911C723.778 135.533 720.178 131.067 715.111 128C710.045 124.933 703.778 123.4 696.311 123.4C688.045 123.4 680.378 125.267 673.311 129C666.245 132.733 660.311 138.067 655.511 145C650.711 151.933 647.511 159.933 645.911 169C645.245 172.2 644.911 175.867 644.911 180C644.911 190.933 648.111 199.533 654.511 205.8C661.045 211.933 669.978 215 681.311 215C691.845 215 701.045 212.133 708.911 206.4C716.911 200.667 722.845 192.733 726.711 182.6H678.711L682.311 161.4H757.911L753.511 185.8C749.911 195.533 744.311 204.533 736.711 212.8C729.111 221.067 720.045 227.733 709.511 232.8C698.978 237.733 687.711 240.2 675.711 240.2C663.845 240.2 653.378 237.8 644.311 233C635.378 228.2 628.378 221.533 623.311 213C618.378 204.333 615.911 194.333 615.911 183C615.911 178.467 616.311 173.8 617.111 169Z" fill="#FF5ABD"/>
</g>
<defs>
<filter id="filter0_f_16_17" x="0.209717" y="0.494843" width="1039.41" height="453.237" filterUnits="userSpaceOnUse" color-interpolation-filters="sRGB">
<feFlood flood-opacity="0" result="BackgroundImageFix"/>
<feBlend mode="normal" in="SourceGraphic" in2="BackgroundImageFix" result="shape"/>
<feGaussianBlur stdDeviation="12" result="effect1_foregroundBlur_16_17"/>
</filter>
<filter id="filter1_d_16_17" x="33.1239" y="30.4948" width="813.352" height="258.237" filterUnits="userSpaceOnUse" color-interpolation-filters="sRGB">
<feFlood flood-opacity="0" result="BackgroundImageFix"/>
<feColorMatrix in="SourceAlpha" type="matrix" values="0 0 0 0 0 0 0 0 0 0 0 0 0 0 0 0 0 0 127 0" result="hardAlpha"/>
<feOffset dy="2"/>
<feGaussianBlur stdDeviation="2"/>
<feColorMatrix type="matrix" values="0 0 0 0 0.352941 0 0 0 0 1 0 0 0 0 0.960784 0 0 0 0.25 0"/>
<feBlend mode="normal" in2="BackgroundImageFix" result="effect1_dropShadow_16_17"/>
<feBlend mode="normal" in="SourceGraphic" in2="effect1_dropShadow_16_17" result="shape"/>
</filter>
<filter id="filter2_d_16_17" x="34.1041" y="24.4948" width="821.352" height="266.237" filterUnits="userSpaceOnUse" color-interpolation-filters="sRGB">
<feFlood flood-opacity="0" result="BackgroundImageFix"/>
<feColorMatrix in="SourceAlpha" type="matrix" values="0 0 0 0 0 0 0 0 0 0 0 0 0 0 0 0 0 0 127 0" result="hardAlpha"/>
<feOffset dx="2"/>
<feGaussianBlur stdDeviation="4"/>
<feColorMatrix type="matrix" values="0 0 0 0 1 0 0 0 0 1 0 0 0 0 0.180392 0 0 0 0.6 0"/>
<feBlend mode="normal" in2="BackgroundImageFix" result="effect1_dropShadow_16_17"/>
<feBlend mode="normal" in="SourceGraphic" in2="effect1_dropShadow_16_17" result="shape"/>
</filter>
<filter id="filter3_d_16_17" x="20.1041" y="8.49484" width="837.352" height="282.237" filterUnits="userSpaceOnUse" color-interpolation-filters="sRGB">
<feFlood flood-opacity="0" result="BackgroundImageFix"/>
<feColorMatrix in="SourceAlpha" type="matrix" values="0 0 0 0 0 0 0 0 0 0 0 0 0 0 0 0 0 0 127 0" result="hardAlpha"/>
<feOffset dx="-4"/>
<feGaussianBlur stdDeviation="8"/>
<feColorMatrix type="matrix" values="0 0 0 0 0.00833333 0 0 0 0 0.167 0 0 0 0 1 0 0 0 1 0"/>
<feBlend mode="normal" in2="BackgroundImageFix" result="effect1_dropShadow_16_17"/>
<feBlend mode="normal" in="SourceGraphic" in2="effect1_dropShadow_16_17" result="shape"/>
</filter>
<filter id="filter4_d_16_17" x="43" y="42" width="818.704" height="258.237" filterUnits="userSpaceOnUse" color-interpolation-filters="sRGB">
<feFlood flood-opacity="0" result="BackgroundImageFix"/>
<feColorMatrix in="SourceAlpha" type="matrix" values="0 0 0 0 0 0 0 0 0 0 0 0 0 0 0 0 0 0 127 0" result="hardAlpha"/>
<feOffset dy="2"/>
<feGaussianBlur stdDeviation="2"/>
<feColorMatrix type="matrix" values="0 0 0 0 0.352941 0 0 0 0 1 0 0 0 0 0.960784 0 0 0 0.25 0"/>
<feBlend mode="normal" in2="BackgroundImageFix" result="effect1_dropShadow_16_17"/>
<feBlend mode="normal" in="SourceGraphic" in2="effect1_dropShadow_16_17" result="shape"/>
</filter>
<filter id="filter5_d_16_17" x="44" y="36" width="826.704" height="266.237" filterUnits="userSpaceOnUse" color-interpolation-filters="sRGB">
<feFlood flood-opacity="0" result="BackgroundImageFix"/>
<feColorMatrix in="SourceAlpha" type="matrix" values="0 0 0 0 0 0 0 0 0 0 0 0 0 0 0 0 0 0 127 0" result="hardAlpha"/>
<feOffset dx="2"/>
<feGaussianBlur stdDeviation="4"/>
<feColorMatrix type="matrix" values="0 0 0 0 1 0 0 0 0 1 0 0 0 0 0.180392 0 0 0 0.6 0"/>
<feBlend mode="normal" in2="BackgroundImageFix" result="effect1_dropShadow_16_17"/>
<feBlend mode="normal" in="SourceGraphic" in2="effect1_dropShadow_16_17" result="shape"/>
</filter>
<filter id="filter6_d_16_17" x="30" y="20" width="842.704" height="282.237" filterUnits="userSpaceOnUse" color-interpolation-filters="sRGB">
<feFlood flood-opacity="0" result="BackgroundImageFix"/>
<feColorMatrix in="SourceAlpha" type="matrix" values="0 0 0 0 0 0 0 0 0 0 0 0 0 0 0 0 0 0 127 0" result="hardAlpha"/>
<feOffset dx="-4"/>
<feGaussianBlur stdDeviation="8"/>
<feColorMatrix type="matrix" values="0 0 0 0 0.00833333 0 0 0 0 0.167 0 0 0 0 1 0 0 0 1 0"/>
<feBlend mode="normal" in2="BackgroundImageFix" result="effect1_dropShadow_16_17"/>
<feBlend mode="normal" in="SourceGraphic" in2="effect1_dropShadow_16_17" result="shape"/>
</filter>
</defs>
</svg>
